<?xml version="1.0" encoding="UTF-8"?>
<svg id="Layer_1" xmlns="http://www.w3.org/2000/svg" xmlns:xlink="http://www.w3.org/1999/xlink" version="1.1" viewBox="0 0 512 512">
  <!-- Generator: Adobe Illustrator 29.5.1, SVG Export Plug-In . SVG Version: 2.1.0 Build 141)  -->
  <defs>
    <style>
      .st0 {
        fill: url(#linear-gradient);
      }
    </style>
    <linearGradient id="linear-gradient" x1="32.54" y1="258.25" x2="479.07" y2="258.25" gradientTransform="translate(0 514) scale(1 -1)" gradientUnits="userSpaceOnUse">
      <stop offset="0" stop-color="#b3b3b3"/>
      <stop offset=".48" stop-color="#e6e6e6"/>
      <stop offset="1" stop-color="#999"/>
    </linearGradient>
  </defs>
  <path class="st0" d="M81.77,310.85c-10.52,19.66-15.07,42.7-11.63,66.33.11.76.83,1.28,1.58,1.15l17.64-2.8c.74-.11,1.25-.81,1.14-1.56-2.9-20.3,1.49-40.04,11.18-56.53.31-.52.92-.77,1.5-.63,24.99,6.02,51.02,2.98,74.18-8.81,12.86-6.55,24.05-15.41,33.14-26.07.4-.46,1.04-.62,1.59-.37,5.68,2.51,11.15,5.63,16.3,9.37,5.17,3.76,9.86,8.02,14.02,12.68.4.45.45,1.12.13,1.64-7.63,12.35-12.7,26.22-14.84,40.97-3.63,25.18,1.59,50.34,14.77,71.79.32.52.26,1.18-.13,1.63-12.69,14.32-30.1,24.58-50.31,28.1-.74.13-1.25.82-1.13,1.57l2.8,17.64c.12.76.84,1.28,1.58,1.14,23.55-4.04,44.05-15.49,59.5-31.57.55-.56,1.43-.56,1.98,0,15.91,16.6,36.6,27.62,59.58,31.57.76.13,1.47-.39,1.58-1.14l2.8-17.65c.11-.74-.39-1.43-1.13-1.57-19.68-3.42-37.27-13.28-50.37-28.1-.4-.45-.45-1.12-.13-1.63,12.98-21.17,18.79-46.88,14.61-73.27-2.24-14.19-7.19-27.53-14.46-39.43-.32-.52-.26-1.18.14-1.64,4.14-4.61,8.82-8.83,13.98-12.58,5.17-3.75,10.61-6.89,16.28-9.41.55-.25,1.21-.09,1.6.37,9.07,10.6,20.23,19.41,33.04,25.94,23.16,11.8,49.22,14.84,74.22,8.8.59-.14,1.21.11,1.51.63,10.02,17.04,13.96,36.79,11.13,56.55-.11.75.4,1.43,1.14,1.56l17.65,2.8c.76.12,1.47-.4,1.58-1.15,3.35-23.05-.73-46.12-11.58-66.36-.37-.7-.1-1.54.62-1.88,20.68-10,37.53-26.25,48.37-46.9.35-.68.08-1.51-.6-1.87l-15.92-8.11c-.67-.34-1.48-.08-1.83.59-9.34,17.65-24.12,31.32-42.24,39.2-.55.24-1.2.08-1.59-.38-16.34-19.18-38.66-31.94-63.75-36.26-6.14-1.06-12.28-1.58-18.39-1.58-8.52,0-16.95,1.02-25.17,3.03-.59.14-1.21-.11-1.51-.63-3.15-5.39-5.75-11.17-7.73-17.25-1.96-6.05-3.26-12.21-3.88-18.4-.06-.6.29-1.17.84-1.4,12.94-5.36,24.82-13.26,35.03-23.46,18.38-18.38,29.32-42.22,31.3-67.87.04-.6.48-1.11,1.06-1.24,19.3-4.28,39.28-1.91,57.22,6.88.68.33,1.49.07,1.83-.6l8.11-15.92c.34-.68.07-1.52-.61-1.86-15.07-7.44-31.32-11.2-47.69-11.2-6.34,0-12.7.57-19.01,1.71-.77.14-1.5-.39-1.6-1.16-3.12-22.76-13.37-43.8-29.65-60.49-.54-.55-1.42-.55-1.95,0l-12.64,12.64c-.53.53-.53,1.39,0,1.93,13.91,14.34,22.33,32.61,24.23,52.29.06.6-.29,1.17-.85,1.4-23.78,9.81-43.08,27.58-54.88,50.74-6.55,12.86-10.39,26.6-11.49,40.57-.04.61-.48,1.11-1.07,1.24-6.07,1.32-12.33,2-18.7,2s-12.62-.68-18.7-2c-.59-.13-1.02-.63-1.07-1.24-1.1-13.97-4.94-27.71-11.49-40.57-11.8-23.16-31.1-40.93-54.88-50.74-.55-.23-.91-.79-.85-1.4,1.89-19.68,10.32-37.95,24.23-52.29.52-.54.53-1.39,0-1.93l-12.64-12.64c-.54-.54-1.43-.54-1.95,0-16.28,16.69-26.53,37.74-29.65,60.49-.11.77-.83,1.3-1.6,1.16-6.31-1.14-12.67-1.71-19.01-1.71-16.36,0-32.61,3.77-47.69,11.2-.69.33-.96,1.18-.61,1.86l8.11,15.92c.34.67,1.15.93,1.83.6,17.93-8.8,37.92-11.16,57.22-6.88.59.13,1.02.64,1.06,1.24,1.99,25.64,12.92,49.49,31.3,67.87,10.2,10.2,22.09,18.1,35.03,23.46.56.23.91.8.84,1.4-.62,6.19-1.91,12.35-3.88,18.4s-4.55,11.8-7.68,17.17c-.31.52-.92.77-1.51.63-8.15-1.96-16.53-2.97-25-2.97-5.68,0-11.4.45-17.12,1.36-26.39,4.18-49.04,17.64-65.16,36.53-.4.46-1.04.62-1.59.38-18.15-7.88-32.95-21.55-42.29-39.22-.35-.67-1.16-.93-1.83-.59l-15.92,8.11c-.68.34-.95,1.19-.6,1.87,10.85,20.66,27.73,36.92,48.43,46.92.7.34.99,1.19.62,1.88h.03ZM263.35,347.99c2.71,17.13.22,33.91-6.29,48.72-.48,1.1-2.05,1.1-2.53,0-6.51-14.8-8.77-31.15-6.42-47.51,1.14-7.9,3.33-15.48,6.47-22.6.48-1.1,2.05-1.1,2.53,0,2.95,6.76,5.05,13.93,6.23,21.4h0ZM349.5,275.54c16.32,2.82,31.19,10.04,43.26,20.83.89.8.41,2.29-.78,2.4-16.52,1.67-33.18-1.41-48.33-9.13-6.74-3.43-12.91-7.66-18.43-12.54-.9-.79-.41-2.29.78-2.4,7.74-.78,15.63-.52,23.5.84h0ZM305.45,172.1c7.72-15.14,19.4-27.44,33.74-35.79,1.04-.6,2.3.32,2.05,1.49-3.51,16.23-11.59,31.13-23.61,43.15-5.37,5.37-11.31,9.94-17.68,13.68-1.04.61-2.31-.32-2.05-1.49,1.58-7.22,4.11-14.28,7.55-21.04ZM170.42,137.8c-.26-1.17,1.01-2.09,2.05-1.49,14.34,8.35,26.02,20.64,33.74,35.79,3.44,6.76,5.97,13.82,7.55,21.04.26,1.17-1.01,2.09-2.05,1.49-6.37-3.74-12.31-8.32-17.68-13.68-12.02-12.02-20.1-26.92-23.61-43.15ZM231.06,245.15c1.98-6.09,3.4-12.28,4.28-18.48.11-.77.83-1.29,1.59-1.16,6.18,1.08,12.5,1.65,18.9,1.65s12.72-.56,18.9-1.65c.77-.13,1.49.39,1.59,1.16.88,6.21,2.3,12.39,4.28,18.48,2,6.14,4.51,12.03,7.49,17.62.37.69.1,1.53-.61,1.87-5.61,2.76-11.04,6.03-16.22,9.79-5.18,3.77-9.96,7.92-14.33,12.41-.55.55-1.43.55-1.97,0-4.39-4.56-9.21-8.76-14.45-12.57-5.18-3.77-10.62-7.02-16.26-9.78-.7-.34-.98-1.19-.61-1.87,2.94-5.54,5.43-11.38,7.41-17.48h0ZM163.36,275.34c7.49-1.19,14.99-1.4,22.34-.68,1.2.11,1.68,1.61.78,2.4-5.53,4.91-11.71,9.14-18.47,12.58-15.12,7.7-31.76,10.79-48.25,9.13-1.2-.12-1.68-1.61-.78-2.4,12.07-10.77,27.25-18.32,44.39-21.03h0Z"/>
</svg>