<?xml version="1.0" encoding="UTF-8"?>
<svg id="Layer_1" xmlns="http://www.w3.org/2000/svg" xmlns:xlink="http://www.w3.org/1999/xlink" version="1.1" viewBox="0 0 512 512">
  <!-- Generator: Adobe Illustrator 29.5.1, SVG Export Plug-In . SVG Version: 2.1.0 Build 141)  -->
  <defs>
    <style>
      .st0 {
        fill: url(#linear-gradient);
      }
    </style>
    <linearGradient id="linear-gradient" x1="31.25" y1="258.27" x2="480.64" y2="258.27" gradientTransform="translate(0 514) scale(1 -1)" gradientUnits="userSpaceOnUse">
      <stop offset="0" stop-color="#b3b3b3"/>
      <stop offset=".48" stop-color="#e6e6e6"/>
      <stop offset="1" stop-color="#999"/>
    </linearGradient>
  </defs>
  <path class="st0" d="M80.71,311.22c-10.59,19.78-15.16,42.97-11.7,66.77.11.76.83,1.28,1.59,1.16l17.76-2.82c.75-.11,1.25-.82,1.14-1.57-2.91-20.43,1.5-40.3,11.26-56.9.31-.53.92-.77,1.52-.63,25.15,6.06,51.36,3,74.66-8.87,12.94-6.59,24.2-15.51,33.36-26.23.4-.47,1.05-.62,1.6-.38,5.73,2.52,11.22,5.67,16.4,9.43,5.21,3.78,9.93,8.07,14.11,12.76.4.46.46,1.13.13,1.65-7.67,12.43-12.79,26.38-14.93,41.24-3.66,25.34,1.6,50.66,14.86,72.26.32.52.27,1.19-.13,1.64-12.77,14.41-30.3,24.74-50.64,28.28-.75.13-1.26.83-1.14,1.58l2.82,17.76c.12.76.84,1.28,1.6,1.15,23.71-4.07,44.34-15.58,59.89-31.77.55-.57,1.44-.57,2,0,16.01,16.7,36.84,27.81,59.97,31.77.76.13,1.48-.4,1.6-1.15l2.82-17.77c.11-.75-.39-1.44-1.14-1.58-19.81-3.45-37.51-13.37-50.71-28.28-.4-.46-.45-1.12-.13-1.64,13.07-21.3,18.91-47.19,14.7-73.74-2.26-14.29-7.23-27.71-14.56-39.69-.32-.52-.26-1.19.14-1.65,4.17-4.64,8.88-8.89,14.07-12.66s10.68-6.93,16.39-9.47c.55-.25,1.21-.09,1.61.37,9.13,10.67,20.36,19.54,33.25,26.11,23.31,11.88,49.54,14.93,74.7,8.85.59-.14,1.21.11,1.52.63,10.09,17.14,14.04,37.03,11.2,56.91-.11.75.4,1.44,1.14,1.57l17.77,2.82c.76.12,1.48-.4,1.59-1.16,3.38-23.21-.74-46.42-11.65-66.79-.37-.7-.1-1.55.62-1.89,20.81-10.06,37.78-26.42,48.69-47.19.36-.68.08-1.52-.6-1.87l-16.02-8.17c-.68-.34-1.5-.08-1.85.59-9.4,17.78-24.27,31.52-42.51,39.46-.55.25-1.21.08-1.6-.38-16.45-19.31-38.91-32.15-64.16-36.5-6.18-1.06-12.36-1.59-18.51-1.59-8.57,0-17.06,1.03-25.33,3.04-.59.14-1.21-.11-1.52-.63-3.18-5.43-5.79-11.24-7.78-17.36-1.98-6.09-3.27-12.29-3.91-18.52-.06-.61.29-1.18.85-1.41,13.02-5.39,24.99-13.35,35.26-23.62,18.5-18.5,29.51-42.5,31.5-68.31.04-.61.48-1.12,1.07-1.25,19.42-4.3,39.54-1.93,57.59,6.93.68.33,1.5.07,1.84-.61l8.17-16.02c.35-.69.07-1.53-.62-1.87-15.17-7.49-31.52-11.28-48-11.28-6.38,0-12.78.57-19.13,1.72-.77.14-1.5-.39-1.61-1.17-3.14-22.9-13.46-44.09-29.84-60.89-.54-.55-1.43-.55-1.97,0l-12.72,12.72c-.54.54-.54,1.4,0,1.94,14,14.43,22.48,32.83,24.38,52.63.06.61-.29,1.17-.85,1.41-23.93,9.87-43.35,27.76-55.23,51.08-6.59,12.94-10.46,26.78-11.56,40.83-.04.61-.48,1.12-1.07,1.25-6.12,1.33-12.42,2.01-18.81,2.01s-12.71-.69-18.81-2.01c-.6-.13-1.03-.64-1.07-1.25-1.11-14.05-4.97-27.89-11.56-40.83-11.88-23.31-31.3-41.2-55.23-51.08-.56-.23-.92-.8-.85-1.41,1.91-19.8,10.39-38.2,24.38-52.63.53-.55.53-1.41,0-1.94l-12.72-12.72c-.55-.55-1.43-.55-1.97,0-16.39,16.8-26.7,37.99-29.84,60.89-.11.78-.84,1.31-1.61,1.17-6.35-1.14-12.75-1.72-19.13-1.72-16.47,0-32.83,3.78-48,11.28-.69.34-.96,1.19-.62,1.87l8.17,16.02c.34.68,1.16.94,1.84.61,18.05-8.85,38.17-11.24,57.59-6.93.59.13,1.03.64,1.07,1.25,2,25.81,13.01,49.81,31.5,68.31,10.27,10.27,22.23,18.22,35.26,23.62.56.24.92.8.85,1.41-.62,6.22-1.93,12.43-3.91,18.52-1.98,6.1-4.58,11.88-7.73,17.28-.31.53-.92.78-1.52.64-8.2-1.97-16.64-2.98-25.17-2.98-5.72,0-11.48.45-17.24,1.36-26.56,4.21-49.37,17.76-65.6,36.77-.4.46-1.05.62-1.6.38-18.27-7.93-33.17-21.69-42.57-39.48-.35-.67-1.17-.93-1.85-.59l-16.02,8.17c-.69.35-.96,1.2-.6,1.87,10.92,20.79,27.9,37.16,48.74,47.22.71.34.99,1.2.62,1.89l-.06.02ZM263.48,348.6c2.73,17.24.23,34.13-6.33,49.03-.48,1.1-2.06,1.1-2.54,0-6.55-14.9-8.84-31.35-6.45-47.83,1.15-7.95,3.35-15.58,6.51-22.75.48-1.11,2.06-1.1,2.54,0,2.97,6.8,5.09,14.02,6.27,21.54h0ZM350.18,275.68c16.42,2.83,31.39,10.1,43.54,20.97.9.8.41,2.3-.78,2.42-16.62,1.69-33.4-1.42-48.64-9.18-6.78-3.46-13-7.7-18.55-12.63-.91-.8-.41-2.3.78-2.42,7.8-.79,15.73-.53,23.65.84h0ZM305.85,171.57c7.77-15.24,19.52-27.61,33.96-36.02,1.04-.61,2.31.32,2.06,1.5-3.53,16.33-11.67,31.33-23.76,43.43-5.4,5.4-11.38,10.01-17.79,13.77-1.04.61-2.32-.32-2.06-1.5,1.59-7.27,4.14-14.38,7.59-21.18h0ZM169.93,137.04c-.26-1.18,1.02-2.1,2.06-1.5,14.44,8.4,26.19,20.78,33.96,36.02,3.47,6.8,6,13.91,7.59,21.18.26,1.18-1.02,2.11-2.06,1.5-6.42-3.77-12.39-8.37-17.79-13.77-12.1-12.1-20.23-27.1-23.76-43.43ZM230.97,245.1c1.99-6.13,3.42-12.36,4.3-18.6.11-.77.84-1.3,1.6-1.17,6.22,1.09,12.58,1.65,19.03,1.65s12.8-.56,19.03-1.65c.77-.13,1.5.39,1.6,1.17.88,6.26,2.31,12.48,4.3,18.6,2.01,6.19,4.54,12.11,7.53,17.73.37.7.1,1.54-.61,1.88-5.65,2.78-11.11,6.06-16.32,9.86-5.22,3.79-10.03,7.97-14.41,12.49-.55.56-1.44.56-1.98,0-4.43-4.58-9.28-8.83-14.54-12.65-5.22-3.79-10.69-7.07-16.37-9.84-.7-.34-.99-1.2-.62-1.88,2.97-5.58,5.46-11.46,7.45-17.59h0ZM162.83,275.48c7.54-1.2,15.08-1.41,22.49-.69,1.21.11,1.69,1.62.78,2.42-5.56,4.94-11.79,9.2-18.59,12.66-15.22,7.75-31.97,10.86-48.57,9.19-1.2-.12-1.69-1.62-.79-2.42,12.15-10.84,27.43-18.44,44.68-21.17h0Z"/>
</svg>