<?xml version="1.0" encoding="UTF-8"?>
<svg id="Layer_1" xmlns="http://www.w3.org/2000/svg" xmlns:xlink="http://www.w3.org/1999/xlink" version="1.1" viewBox="0 0 64 64">
  <!-- Generator: Adobe Illustrator 29.5.1, SVG Export Plug-In . SVG Version: 2.1.0 Build 141)  -->
  <defs>
    <style>
      .st0 {
        fill: url(#linear-gradient);
      }
    </style>
    <linearGradient id="linear-gradient" x1="3.89" y1="34" x2="60.11" y2="34" gradientTransform="translate(0 66) scale(1 -1)" gradientUnits="userSpaceOnUse">
      <stop offset="0" stop-color="#b3b3b3"/>
      <stop offset=".48" stop-color="#e6e6e6"/>
      <stop offset="1" stop-color="#999"/>
    </linearGradient>
  </defs>
  <path class="st0" d="M10.09,38.97c-1.32,2.47-1.9,5.38-1.46,8.35.02.1.11.16.2.15l2.22-.35c.1-.02.16-.11.14-.19-.36-2.55.18-5.04,1.41-7.12.04-.06.11-.1.19-.08,3.14.76,6.42.38,9.34-1.11,1.62-.83,3.03-1.94,4.17-3.28.05-.06.13-.08.2-.04.71.32,1.41.71,2.05,1.18.65.48,1.24,1.01,1.77,1.59.05.05.05.14.02.2-.96,1.56-1.6,3.3-1.87,5.16-.46,3.17.2,6.34,1.86,9.04.04.06.04.15-.02.2-1.59,1.8-3.79,3.1-6.34,3.54-.1.02-.16.11-.14.19l.35,2.22c.02.1.11.16.2.14,2.97-.51,5.54-1.95,7.49-3.98.07-.07.18-.07.25,0,2.01,2.09,4.61,3.48,7.5,3.97.1.02.18-.05.2-.14l.35-2.22c.02-.1-.05-.18-.14-.19-2.47-.43-4.69-1.67-6.34-3.54-.05-.05-.05-.14-.02-.2,1.64-2.67,2.37-5.9,1.84-9.22-.28-1.79-.91-3.47-1.82-4.96-.04-.06-.04-.15.02-.2.52-.58,1.11-1.11,1.76-1.58s1.34-.87,2.05-1.19c.07-.04.15,0,.2.04,1.14,1.34,2.54,2.45,4.16,3.26,2.91,1.49,6.2,1.87,9.35,1.11.07-.02.15.02.19.08,1.26,2.15,1.76,4.63,1.4,7.12-.02.1.05.18.14.19l2.22.35c.1.02.18-.05.2-.15.42-2.9-.09-5.81-1.46-8.35-.04-.09,0-.19.08-.24,2.6-1.26,4.73-3.3,6.09-5.9.04-.09,0-.19-.08-.24l-2.01-1.02c-.09-.04-.18,0-.23.07-1.18,2.23-3.04,3.94-5.32,4.94-.07.03-.15,0-.2-.04-2.06-2.41-4.87-4.02-8.03-4.57-.77-.13-1.55-.2-2.31-.2-1.07,0-2.13.13-3.17.38-.07.02-.15-.02-.19-.08-.4-.68-.72-1.41-.98-2.17-.25-.77-.41-1.54-.48-2.31,0-.08.04-.15.11-.18,1.63-.68,3.12-1.67,4.41-2.96,2.31-2.31,3.69-5.32,3.94-8.54,0-.08.06-.14.13-.16,2.43-.54,4.95-.24,7.2.86.09.04.18,0,.23-.08l1.02-2.01c.04-.09,0-.19-.08-.24-1.9-.93-3.94-1.41-6-1.41-.8,0-1.6.07-2.39.21-.1.02-.18-.05-.2-.15-.4-2.86-1.68-5.52-3.73-7.61-.07-.07-.18-.07-.25,0l-1.59,1.59c-.07.07-.07.18,0,.25,1.75,1.8,2.81,4.11,3.05,6.58,0,.08-.04.15-.11.18-2.99,1.23-5.42,3.48-6.91,6.39-.83,1.62-1.31,3.35-1.44,5.1,0,.08-.06.14-.13.16-.77.17-1.55.26-2.35.26s-1.59-.09-2.35-.26c-.07-.02-.13-.08-.13-.16-.14-1.76-.62-3.48-1.44-5.1-1.49-2.91-3.92-5.15-6.91-6.39-.07-.03-.11-.1-.11-.18.24-2.47,1.3-4.78,3.05-6.58.06-.07.07-.18,0-.25l-1.59-1.59c-.07-.07-.18-.07-.25,0-2.05,2.1-3.34,4.75-3.73,7.61-.02.1-.11.17-.2.15-.79-.14-1.59-.21-2.39-.21-2.06,0-4.11.48-6,1.41-.09.04-.12.15-.08.24l1.02,2.01c.04.09.15.11.23.08,2.26-1.11,4.77-1.41,7.2-.86.07.02.13.08.13.16.25,3.23,1.63,6.23,3.94,8.54,1.28,1.28,2.78,2.28,4.41,2.96.07.03.11.1.11.18-.08.77-.24,1.56-.48,2.31-.25.77-.57,1.49-.97,2.16-.04.06-.11.1-.19.08-1.03-.25-2.08-.37-3.15-.37-.71,0-1.43.05-2.16.17-3.32.53-6.18,2.22-8.2,4.6-.05.06-.13.08-.2.04-2.29-.99-4.14-2.71-5.32-4.94-.04-.09-.15-.11-.23-.07l-2.01,1.02c-.09.04-.12.15-.08.24,1.36,2.6,3.49,4.65,6.1,5.9.09.04.12.15.08.24v.02ZM32.95,43.65c.34,2.16.03,4.27-.79,6.13-.06.14-.26.14-.32,0-.82-1.87-1.11-3.92-.81-5.98.14-.99.42-1.94.82-2.84.06-.14.26-.14.32,0,.37.85.63,1.75.78,2.69ZM43.79,34.53c2.05.35,3.92,1.27,5.45,2.62.11.1.05.29-.1.3-2.08.21-4.18-.18-6.08-1.14-.84-.43-1.63-.96-2.32-1.58-.11-.1-.05-.29.1-.3.98-.1,1.97-.06,2.96.11h0ZM38.25,21.51c.97-1.91,2.44-3.45,4.25-4.51.13-.08.29.04.26.18-.44,2.04-1.46,3.92-2.97,5.43-.68.68-1.43,1.25-2.23,1.72-.13.08-.29-.04-.26-.18.2-.91.52-1.8.95-2.65ZM21.25,17.19c-.04-.15.12-.26.26-.18,1.8,1.05,3.27,2.6,4.25,4.51.43.85.75,1.74.95,2.65.04.15-.12.26-.26.18-.8-.47-1.55-1.05-2.23-1.72-1.51-1.51-2.53-3.39-2.97-5.43ZM28.88,30.71c.25-.77.43-1.55.54-2.32.02-.1.11-.17.2-.15.77.14,1.58.21,2.38.21s1.6-.07,2.38-.21c.1-.02.18.05.2.15.11.78.29,1.56.54,2.32.26.77.56,1.51.94,2.22.04.09,0,.19-.08.24-.7.34-1.39.76-2.04,1.23-.65.48-1.26.99-1.8,1.56-.07.07-.18.07-.25,0-.55-.57-1.16-1.1-1.82-1.58-.65-.48-1.34-.88-2.05-1.23-.09-.04-.12-.15-.08-.24.37-.7.69-1.43.93-2.2h.02ZM20.36,34.5c.94-.15,1.88-.18,2.82-.09.15.02.21.2.1.3-.7.62-1.48,1.15-2.32,1.58-1.9.97-4,1.36-6.07,1.15-.15-.02-.21-.2-.1-.3,1.52-1.36,3.43-2.31,5.59-2.65h0Z"/>
</svg>